# xmcd
#
# Track frame offsets:
#	150
#	10140
#	50438
#	72407
#	104423
#
# Disc length: 1692 seconds
#
# Revision: 1
# Processed by: cddbd v1.5.1PL0 Copyright (c) Steve Scherf et al.
# Submitted via: CDex 1.50Beta5
#
DISCID=3d069a05
DTITLE=ドン・キャンベル - アマデウスの魔法の音
DYEAR=1900
DGENRE=Classical
TTITLE0=３つのドイツ舞曲
TTITLE1=４つのドイツ舞曲
TTITLE2=セレナード第9番二長調
TTITLE3=クラリネット協奏曲イ長調
TTITLE4=１２のドイツ舞曲
EXTD=
EXTT0=
EXTT1=
EXTT2=
EXTT3=
EXTT4=
PLAYORDER=
